<svg width="22" height="22" viewBox="0 0 22 22" fill="none" xmlns="http://www.w3.org/2000/svg">
<path fill-rule="evenodd" clip-rule="evenodd" d="M0 11C0 4.92487 4.92487 0 11 0C17.0751 0 22 4.92487 22 11C22 17.075 17.0751 22 11 22C4.92487 22 0 17.075 0 11ZM11 1.57787C5.79631 1.57787 1.57788 5.79631 1.57788 11C1.57788 16.2037 5.79631 20.4221 11 20.4221C16.2037 20.4221 20.4221 16.2037 20.4221 11C20.4221 5.79631 16.2037 1.57787 11 1.57787ZM14.9093 7.09113C15.2335 7.41544 15.2335 7.94128 14.9093 8.26559L12.1747 11.0002L14.9093 13.7348C15.2335 14.0591 15.2335 14.585 14.9093 14.9093C14.585 15.2336 14.0591 15.2336 13.7348 14.9093L11.0002 12.1746L8.26559 14.9093C7.94128 15.2336 7.41544 15.2336 7.09113 14.9093C6.76682 14.585 6.76682 14.0591 7.09113 13.7348L9.82576 11.0002L7.09113 8.26559C6.76682 7.94128 6.76682 7.41544 7.09113 7.09113C7.41544 6.76682 7.94128 6.76682 8.26559 7.09113L11.0002 9.82576L13.7348 7.09113C14.0591 6.76682 14.585 6.76682 14.9093 7.09113Z" fill="white"/>
</svg>
