<svg width="17" height="14" viewBox="0 0 17 14" fill="none" xmlns="http://www.w3.org/2000/svg">
<path fill-rule="evenodd" clip-rule="evenodd" d="M0.226336 12.5899C-0.0754452 12.8917 -0.0754452 13.381 0.226336 13.6828C0.528101 13.9845 1.01736 13.9845 1.31913 13.6828L7.50094 7.50094C7.80272 7.19918 7.80272 6.70992 7.50094 6.40815L1.31913 0.226336C1.01736 -0.0754452 0.528101 -0.0754452 0.226336 0.226336C-0.0754452 0.528101 -0.0754452 1.01736 0.226336 1.31913L5.86174 6.95455L0.226336 12.5899ZM9.49906 12.5899C9.19728 12.8917 9.19728 13.381 9.49906 13.6828C9.80083 13.9845 10.2901 13.9845 10.5919 13.6828L16.7737 7.50094C17.0754 7.19918 17.0754 6.70992 16.7737 6.40815L10.5919 0.226336C10.2901 -0.0754452 9.80083 -0.0754452 9.49906 0.226336C9.19728 0.528101 9.19728 1.01736 9.49906 1.31913L15.1345 6.95455L9.49906 12.5899Z" fill="white"/>
</svg>
