<svg width="28" height="17" viewBox="0 0 28 17" fill="none" xmlns="http://www.w3.org/2000/svg">
<path fill-rule="evenodd" clip-rule="evenodd" d="M13.7503 14.667C8.80544 14.667 4.63757 12.1403 2.00979 8.25022C4.63757 4.36007 8.80544 1.83338 13.7503 1.83338C18.6951 1.83338 22.8632 4.36007 25.4909 8.25022C22.8632 12.1403 18.6951 14.667 13.7503 14.667ZM13.7503 0C7.89794 0 3.03679 3.12844 0.139337 7.76438C-0.0464465 8.06164 -0.0464457 8.43882 0.139339 8.73607C3.03679 13.3719 7.89794 16.5004 13.7503 16.5004C19.6027 16.5004 24.4639 13.3719 27.3613 8.73607C27.5471 8.43882 27.5471 8.06164 27.3613 7.76438C24.4639 3.12844 19.6027 0 13.7503 0ZM13.7503 11.917C15.7754 11.917 17.4171 10.2753 17.4171 8.25021C17.4171 6.22511 15.7754 4.58345 13.7503 4.58345C11.7252 4.58345 10.0836 6.22511 10.0836 8.25021C10.0836 10.2753 11.7252 11.917 13.7503 11.917Z" fill="white"/>
</svg>
