<svg width="14" height="24" viewBox="0 0 14 24" fill="none" xmlns="http://www.w3.org/2000/svg">
<path fill-rule="evenodd" clip-rule="evenodd" d="M8.52308 0.0621825C8.79281 0.20192 8.94867 0.546806 8.90043 0.89718L7.7512 9.24556H13.3636C13.6046 9.24556 13.8251 9.41044 13.9329 9.67145C14.0406 9.93247 14.0174 10.2448 13.8727 10.4783L6.23637 22.8057C6.06034 23.0898 5.74666 23.1914 5.47693 23.0516C5.2072 22.912 5.05134 22.567 5.09958 22.2167L6.2488 13.8683H0.636369C0.395339 13.8683 0.174978 13.7034 0.0671899 13.4424C-0.0406106 13.1814 -0.017345 12.869 0.127276 12.6356L7.76364 0.308242C7.93967 0.0240778 8.25335 -0.0775548 8.52308 0.0621825ZM1.9091 12.3274H7C7.18706 12.3274 7.36465 12.427 7.48556 12.5998C7.60647 12.7726 7.65846 13.0011 7.62771 13.2245L6.78401 19.3534L12.0909 10.7865H7C6.81294 10.7865 6.63536 10.6868 6.51445 10.514C6.39354 10.3412 6.34155 10.1127 6.3723 9.88935L7.21599 3.7605L1.9091 12.3274Z" fill="white"/>
</svg>
