<svg width="41" height="29" viewBox="0 0 41 29" fill="none" xmlns="http://www.w3.org/2000/svg">
<path d="M37.3914 0.26719C35.3377 -0.0260122 33.4081 1.22093 32.8625 3.33947C32.2948 5.54683 31.142 7.29603 29.3173 8.65451C26.9396 10.4244 24.3583 11.0849 21.4363 10.6314C21.2724 10.5887 21.1063 10.555 20.9387 10.5306C18.8849 10.2374 16.9547 11.4843 16.4097 13.6029C15.842 15.8102 14.6893 17.5594 12.8646 18.9179C10.4095 20.7453 7.73791 21.3891 4.69635 20.8474C2.42888 20.4427 0.399171 22.0349 0.0532061 24.2403C-0.292759 26.4457 1.07841 28.3992 3.29446 28.8808C5.58798 29.3797 7.52887 28.1221 8.20811 25.699C8.85837 23.3899 10.3237 21.3948 12.3324 20.0835C14.3412 18.7722 16.7572 18.2335 19.1327 18.5673C19.5114 18.6214 19.8994 18.6802 20.2835 18.7009C22.3399 18.9092 24.0377 17.6676 24.6628 15.4349C25.3131 13.1258 26.7784 11.1307 28.7871 9.81942C30.7959 8.50809 33.2119 7.96941 35.5874 8.3032C36.1986 8.39003 36.833 8.49088 37.4355 8.41607C39.4665 8.16562 40.9973 6.39706 41 4.39607C41.0013 2.27553 39.5119 0.569743 37.3914 0.26719Z" fill="url(#paint0_linear_729_4800)"/>
<path d="M7.69576 15.6606C9.64732 16.0847 11.299 15.0154 11.8761 12.9537C12.4293 10.9892 13.6759 9.29194 15.3849 8.17636C17.0939 7.06078 19.1494 6.60255 21.1704 6.8866C21.69 6.96007 22.2296 7.04555 22.7426 6.98277C23.5755 6.87397 24.341 6.46796 24.8983 5.8395C25.4556 5.21104 25.7671 4.40244 25.7755 3.56253C25.7755 1.75923 24.5111 0.305235 22.7072 0.0474307C20.9593 -0.202359 19.3177 0.858923 18.8535 2.66288C18.3706 4.54031 17.3901 6.02903 15.838 7.18447C13.7495 8.73931 11.476 9.28764 8.89195 8.82613C6.96243 8.4815 5.23593 9.83665 4.94139 11.7127C4.64685 13.5888 5.81098 15.2512 7.69576 15.6606Z" fill="url(#paint1_linear_729_4800)"/>
<path d="M11.3078 5.34309C12.7832 5.34309 13.9793 4.147 13.9793 2.67155C13.9793 1.19609 12.7832 0 11.3078 0C9.83232 0 8.63623 1.19609 8.63623 2.67155C8.63623 4.147 9.83232 5.34309 11.3078 5.34309Z" fill="url(#paint2_linear_729_4800)"/>
<path d="M29.6747 28.8527C31.1502 28.8527 32.3463 27.6566 32.3463 26.1811C32.3463 24.7057 31.1502 23.5096 29.6747 23.5096C28.1993 23.5096 27.0032 24.7057 27.0032 26.1811C27.0032 27.6566 28.1993 28.8527 29.6747 28.8527Z" fill="url(#paint3_linear_729_4800)"/>
<path d="M33.1263 13.138C31.3784 12.8882 29.7367 13.9495 29.2726 15.7535C28.7897 17.6309 27.8092 19.1196 26.2571 20.2751C24.1686 21.8299 21.8951 22.3782 19.311 21.9167C17.3815 21.5721 15.655 22.9272 15.3605 24.8033C15.0659 26.6794 16.2334 28.3431 18.1182 28.7512C20.0698 29.1753 21.7214 28.106 22.2985 26.0442C22.8517 24.0798 24.0984 22.3825 25.8074 21.2669C27.5163 20.1514 29.5718 19.6931 31.5928 19.9772C32.1124 20.0506 32.6521 20.1361 33.165 20.0733C33.9979 19.9646 34.7634 19.5585 35.3207 18.9301C35.878 18.3016 36.1895 17.493 36.1979 16.6531C36.1965 14.8471 34.9302 13.3958 33.1263 13.138Z" fill="url(#paint4_linear_729_4800)"/>
<defs>
<linearGradient id="paint0_linear_729_4800" x1="41" y1="3.77785" x2="1.83777" y2="31.5777" gradientUnits="userSpaceOnUse">
<stop stop-color="#11E5B3"/>
<stop offset="1" stop-color="#683DE5"/>
</linearGradient>
<linearGradient id="paint1_linear_729_4800" x1="25.7755" y1="1.95568" x2="4.89403" y2="15.7495" gradientUnits="userSpaceOnUse">
<stop stop-color="#11E5B3"/>
<stop offset="1" stop-color="#683DE5"/>
</linearGradient>
<linearGradient id="paint2_linear_729_4800" x1="13.9793" y1="0.660012" x2="7.82931" y2="3.72281" gradientUnits="userSpaceOnUse">
<stop stop-color="#11E5B3"/>
<stop offset="1" stop-color="#683DE5"/>
</linearGradient>
<linearGradient id="paint3_linear_729_4800" x1="32.3463" y1="24.1696" x2="26.1962" y2="27.2324" gradientUnits="userSpaceOnUse">
<stop stop-color="#11E5B3"/>
<stop offset="1" stop-color="#683DE5"/>
</linearGradient>
<linearGradient id="paint4_linear_729_4800" x1="36.1979" y1="15.0463" x2="15.3152" y2="28.843" gradientUnits="userSpaceOnUse">
<stop stop-color="#11E5B3"/>
<stop offset="1" stop-color="#683DE5"/>
</linearGradient>
</defs>
</svg>
